<svg xmlns="http://www.w3.org/2000/svg" width="16" height="16" viewBox="0 0 16 16">
  <defs>
    <style>
      .cls-1 {
        fill: #fff;
        fill-rule: evenodd;
      }
    </style>
  </defs>
  <path id="Search_Icon" data-name="Search Icon" class="cls-1" d="M15.644,13.9l-3.3-3.3a6.588,6.588,0,0,0,1.193-3.837A6.657,6.657,0,0,0,13,4.135,6.629,6.629,0,0,0,9.4.529a6.741,6.741,0,0,0-5.26,0A6.627,6.627,0,0,0,.532,4.135a6.747,6.747,0,0,0,0,5.26A6.629,6.629,0,0,0,4.138,13a6.648,6.648,0,0,0,2.63.535,6.582,6.582,0,0,0,3.837-1.194l3.3,3.289a1.145,1.145,0,0,0,.865.365A1.231,1.231,0,0,0,15.644,13.9ZM9.812,9.809a4.146,4.146,0,0,1-3.044,1.264A4.146,4.146,0,0,1,3.725,9.809,4.148,4.148,0,0,1,2.46,6.765,4.15,4.15,0,0,1,3.725,3.722,4.148,4.148,0,0,1,6.768,2.456,4.149,4.149,0,0,1,9.812,3.722a4.15,4.15,0,0,1,1.265,3.044A4.149,4.149,0,0,1,9.812,9.809Z"/>
</svg>
